<?xml version="1.0" standalone="no"?>
<!DOCTYPE svg PUBLIC "-//W3C//DTD SVG 20010904//EN"
 "http://www.w3.org/TR/2001/REC-SVG-20010904/DTD/svg10.dtd">
<svg version="1.0" xmlns="http://www.w3.org/2000/svg"
 width="240.000000pt" height="240.000000pt" viewBox="0 0 240.000000 240.000000"
 preserveAspectRatio="xMidYMid meet">

<g transform="translate(0.000000,240.000000) scale(0.100000,-0.100000)"
fill="#000000" stroke="none">
<path d="M0 1200 l0 -1200 1200 0 1200 0 0 1200 0 1200 -1200 0 -1200 0 0
-1200z m1790 848 c55 -29 81 -64 87 -119 17 -168 -222 -223 -282 -65 -24 64
-14 111 36 158 35 33 55 43 99 47 9 0 36 -9 60 -21z m-958 -924 l3 -546 224
546 224 546 299 0 298 0 0 -555 0 -555 -150 0 -150 0 -1 243 c-1 133 -5 374
-8 536 l-6 295 -159 -405 c-87 -222 -182 -462 -211 -534 l-51 -130 -307 -3
-307 -2 0 555 0 555 150 0 150 0 2 -546z"/>
</g>
</svg>
