<?xml version="1.0" encoding="UTF-8"?>
<svg version="1.1" xmlns="http://www.w3.org/2000/svg" width="802" height="802">
<path d="M0 0 C3.6348303 0.00314914 7.26883448 -0.02036708 10.90356445 -0.0456543 C27.63995269 -0.09089407 44.01078041 1.13443389 60.60083008 3.31567383 C61.3819516 3.41800323 62.16307312 3.52033264 62.96786499 3.62576294 C66.96656932 4.16438094 70.94098181 4.79724822 74.91333008 5.50317383 C76.09024414 5.71111572 77.2671582 5.91905762 78.47973633 6.13330078 C116.16638871 13.07780193 152.60360695 25.58458949 186.59790039 43.27954102 C188.73367665 44.38439651 190.88143157 45.46351944 193.03051758 46.54223633 C216.94481725 58.67530052 239.17460743 73.96242273 259.60083008 91.31567383 C260.67102335 92.21164959 261.74134329 93.10747407 262.81176758 94.00317383 C282.01558345 110.16761548 299.83346333 127.76189858 315.60083008 147.31567383 C316.07633301 147.90268066 316.55183594 148.4896875 317.04174805 149.09448242 C332.80264748 168.71182699 346.75868218 190.12333564 358.60083008 212.31567383 C359.06005859 213.17370605 359.51928711 214.03173828 359.99243164 214.91577148 C383.06419718 258.47158882 396.20835764 305.61929807 402.60083008 354.31567383 C402.73360352 355.31566406 402.86637695 356.3156543 403.00317383 357.34594727 C412.10877144 430.0116855 397.76914515 506.41332383 366.60083008 572.31567383 C366.19010254 573.19078613 365.779375 574.06589844 365.35620117 574.9675293 C348.36421097 610.88817229 325.19874118 643.96465416 297.96459961 672.85473633 C295.86854438 675.10013455 293.83046689 677.39629338 291.78833008 679.69067383 C286.41916088 685.66822011 280.83563489 691.20828919 274.74536133 696.44848633 C272.44975579 698.44721028 270.21603408 700.50512612 267.97583008 702.56567383 C261.7713185 708.14879275 255.23721435 713.26333508 248.60083008 718.31567383 C247.88217773 718.86416992 247.16352539 719.41266602 246.4230957 719.9777832 C225.16628862 736.12565811 202.57906292 749.71692748 178.56762695 761.35668945 C176.62830851 762.3022757 174.70050409 763.26873648 172.77270508 764.23754883 C126.66414136 787.05409862 71.74996043 800.30720542 20.19848633 800.51879883 C19.05051071 800.52581314 17.9025351 800.53282745 16.71977234 800.54005432 C13.03425125 800.55746653 9.34889079 800.56390682 5.66333008 800.56567383 C4.40484253 800.56634857 3.14635498 800.56702332 1.84973145 800.56771851 C-16.43521133 800.552121 -34.31047902 800.1924633 -52.39916992 797.31567383 C-53.52919434 797.14406738 -54.65921875 796.97246094 -55.82348633 796.7956543 C-131.16284745 785.14330529 -202.23195947 752.91214634 -259.39916992 702.31567383 C-260.33889648 701.4880957 -261.27862305 700.66051758 -262.24682617 699.80786133 C-267.12980025 695.46252995 -271.82662365 690.98459696 -276.39916992 686.31567383 C-279.12564516 683.5751687 -281.86889454 680.85349317 -284.63354492 678.15161133 C-290.87545516 672.02450702 -296.84533818 665.87512249 -302.27416992 658.99926758 C-304.49946997 656.18900815 -306.81828121 653.47627939 -309.14916992 650.75317383 C-357.06968325 593.18921355 -386.7489288 518.62844006 -394.39916992 444.31567383 C-394.55144043 442.89786621 -394.55144043 442.89786621 -394.70678711 441.45141602 C-405.48053491 337.48644911 -374.57521706 230.8356393 -308.77416992 149.50317383 C-307.32235148 147.76853361 -305.86358092 146.03969642 -304.39916992 144.31567383 C-303.44459241 143.17517472 -302.49017557 142.03454112 -301.53588867 140.89379883 C-296.12741294 134.4687444 -290.61312997 128.32476541 -284.55541992 122.49926758 C-282.33300652 120.32610995 -282.33300652 120.32610995 -280.35229492 117.74536133 C-278.57174258 115.53035421 -276.82474366 113.81465362 -274.64916992 112.00317383 C-271.8215107 109.59211265 -269.17126185 107.11018048 -266.58666992 104.44067383 C-262.78618028 100.59607792 -258.73520803 97.19483483 -254.51245117 93.82348633 C-252.36859316 92.09656432 -250.27248336 90.35664159 -248.19213867 88.55786133 C-228.92643629 72.10594777 -206.74709638 58.15805698 -184.39916992 46.31567383 C-183.48071289 45.82695801 -182.56225586 45.33824219 -181.6159668 44.8347168 C-143.58613182 24.78484268 -102.80618838 11.42281741 -60.39916992 4.50317383 C-59.2089624 4.30820313 -58.01875488 4.11323242 -56.79248047 3.91235352 C-37.87066154 0.98641874 -19.1408037 -0.03448333 0 0 Z " fill="#FC3F1D" transform="translate(397.399169921875,-0.315673828125)"/>
<path d="M0 0 C0 156.75 0 313.5 0 475 C-27.39 475 -54.78 475 -83 475 C-83 339.7 -83 204.4 -83 65 C-148.69346412 64.07872904 -148.69346412 64.07872904 -202.95703125 93.859375 C-221.32879645 113.26792153 -222.78727688 138.12229215 -222.14355469 163.42822266 C-220.8642918 195.25750174 -204.94574636 220.72022925 -182.15283203 242.06738281 C-176.11438139 247.48815569 -169.57653949 252.26025192 -163 257 C-161.7459673 257.91519134 -160.4920563 258.83054947 -159.23828125 259.74609375 C-152.52022541 264.61474651 -145.66456793 269.24533468 -138.75332642 273.83480835 C-135.58825182 275.93819221 -132.42725671 278.04769627 -129.265625 280.15625 C-127.93751725 281.04169255 -126.60939218 281.9271091 -125.28125 282.8125 C-119.1875 286.875 -113.09375 290.9375 -107 295 C-107.63572322 299.00711088 -109.65008916 301.76719 -111.890625 305.09765625 C-112.29791336 305.70639587 -112.70520172 306.3151355 -113.12483215 306.94232178 C-114.49439784 308.98612562 -115.87223131 311.02421875 -117.25 313.0625 C-118.23543721 314.52986139 -119.22036903 315.9975623 -120.20483398 317.46557617 C-125.74888426 325.72434597 -131.32485573 333.96162753 -136.89453125 342.203125 C-138.67946869 344.84474248 -140.46430246 347.48642989 -142.2489624 350.12823486 C-143.46129922 351.92264676 -144.6739065 353.71687596 -145.88677979 355.51092529 C-156.78426976 371.63495099 -167.52747542 387.85742023 -178.19555664 404.1340332 C-183.65330194 412.45466597 -189.15225328 420.73648186 -194.81518555 428.91902161 C-200.26448299 436.8032859 -205.57160002 444.78243096 -210.88330078 452.75976562 C-212.65612965 455.42174247 -214.43148514 458.08202249 -216.20703125 460.7421875 C-217.33869006 462.44000527 -218.47020611 464.1379182 -219.6015625 465.8359375 C-220.13061188 466.62849945 -220.65966125 467.4210614 -221.20474243 468.23764038 C-221.68970184 468.96665558 -222.17466125 469.69567078 -222.67431641 470.44677734 C-223.10080475 471.08690765 -223.52729309 471.72703796 -223.96670532 472.38656616 C-225.0581831 474.0282214 -225.0581831 474.0282214 -226 476 C-255.7 476 -285.4 476 -316 476 C-314.19700543 471.49251358 -312.07154538 467.8835646 -309.35546875 463.9296875 C-308.88246338 463.23276291 -308.40945801 462.53583832 -307.92211914 461.8177948 C-306.89128914 460.30020822 -305.85827096 458.78410621 -304.82333374 457.26931763 C-303.15770865 454.83139535 -301.49768885 452.38974306 -299.83911133 449.94702148 C-297.46345635 446.44870684 -295.08582372 442.95174826 -292.70703125 439.45556641 C-286.50946808 430.34103374 -280.34952833 421.20107467 -274.1875 412.0625 C-273.57023041 411.14748718 -272.95296082 410.23247437 -272.31698608 409.28973389 C-264.46148191 397.64459002 -256.63205044 385.98293263 -248.85903931 374.28256226 C-243.40794719 366.07809979 -237.91549013 357.90246096 -232.3984375 349.7421875 C-231.73668518 348.76300354 -231.07493286 347.78381958 -230.39312744 346.77496338 C-227.08824959 341.88552618 -223.78055638 336.99802807 -220.46875 332.11328125 C-219.25772732 330.32297428 -218.04678598 328.53261229 -216.8359375 326.7421875 C-215.99523209 325.50527664 -215.99523209 325.50527664 -215.13754272 324.24337769 C-214.62084015 323.47840973 -214.10413757 322.71344177 -213.57177734 321.92529297 C-213.12136078 321.26077118 -212.67094421 320.59624939 -212.20687866 319.91159058 C-210.99610989 317.99383841 -209.97804535 316.04482286 -209 314 C-209.81597656 313.63261719 -209.81597656 313.63261719 -210.6484375 313.2578125 C-222.61409349 306.8575779 -233.48958671 296.51091168 -243.40234375 287.37890625 C-245.63283272 285.33624793 -247.89366544 283.34563282 -250.1875 281.375 C-280.28012386 255.07453605 -301.45278882 216.26708835 -304.80151367 176.25341797 C-307.53254646 131.48866647 -300.98668782 89.32707731 -270.4375 54.75 C-268.96603788 53.15950394 -267.48728089 51.57571381 -266 50 C-265.37738281 49.32453125 -264.75476563 48.6490625 -264.11328125 47.953125 C-253.92902596 37.27780499 -241.94919788 29.82664569 -229 23 C-227.97003906 22.44441406 -226.94007813 21.88882813 -225.87890625 21.31640625 C-160.10628053 -13.04242808 -64.53048316 0 0 0 Z " fill="#FEFDFD" transform="translate(536,162)"/>
</svg>
